<?xml version="1.0" encoding="UTF-8" standalone="no"?>
<!DOCTYPE svg PUBLIC "-//W3C//DTD SVG 1.1//EN"
 "http://www.w3.org/Graphics/SVG/1.1/DTD/svg11.dtd">
<!-- Generated by graphviz version 13.1.0 (20250701.0955)
 -->
<!-- Title: interface/driver_qmc5883l_interface.h Pages: 1 -->
<svg width="530pt" height="176pt"
 viewBox="0.00 0.00 530.00 176.00" xmlns="http://www.w3.org/2000/svg" xmlns:xlink="http://www.w3.org/1999/xlink">
<g id="graph0" class="graph" transform="scale(1 1) rotate(0) translate(4 172)">
<title>interface/driver_qmc5883l_interface.h</title>
<!-- Node1 -->
<g id="Node000001" class="node">
<title>Node1</title>
<g id="a_Node000001"><a xlink:title="driver qmc5883l interface header file">
<polygon fill="#999999" stroke="#666666" points="339.38,-168 211.62,-168 211.62,-136 339.38,-136 339.38,-168"/>
<text xml:space="preserve" text-anchor="start" x="219.62" y="-154.5" font-family="Helvetica,sans-Serif" font-size="10.00">interface/driver_qmc5883l</text>
<text xml:space="preserve" text-anchor="middle" x="275.5" y="-142.5" font-family="Helvetica,sans-Serif" font-size="10.00">_interface.h</text>
</a>
</g>
</g>
<!-- Node2 -->
<g id="Node000002" class="node">
<title>Node2</title>
<g id="a_Node000002"><a xlink:href="driver__qmc5883l__basic_8h.html" target="_top" xlink:title="driver qmc5883l basic header file">
<polygon fill="white" stroke="#666666" points="127,-100 0,-100 0,-68 127,-68 127,-100"/>
<text xml:space="preserve" text-anchor="start" x="8" y="-86.5" font-family="Helvetica,sans-Serif" font-size="10.00">example/driver_qmc5883l</text>
<text xml:space="preserve" text-anchor="middle" x="63.5" y="-74.5" font-family="Helvetica,sans-Serif" font-size="10.00">_basic.h</text>
</a>
</g>
</g>
<!-- Node1&#45;&gt;Node2 -->
<g id="edge1_Node000001_Node000002" class="edge">
<title>Node1&#45;&gt;Node2</title>
<g id="a_edge1_Node000001_Node000002"><a xlink:title=" ">
<path fill="none" stroke="#63b8ff" d="M215.15,-132.21C182.92,-122.18 143.73,-109.98 113.26,-100.49"/>
<polygon fill="#63b8ff" stroke="#63b8ff" points="213.76,-135.45 224.35,-135.08 215.84,-128.76 213.76,-135.45"/>
</a>
</g>
</g>
<!-- Node4 -->
<g id="Node000004" class="node">
<title>Node4</title>
<g id="a_Node000004"><a xlink:href="driver__qmc5883l__interface__template_8c.html" target="_top" xlink:title="driver qmc5883l interface template source file">
<polygon fill="white" stroke="#666666" points="272.38,-100 144.62,-100 144.62,-68 272.38,-68 272.38,-100"/>
<text xml:space="preserve" text-anchor="start" x="152.62" y="-86.5" font-family="Helvetica,sans-Serif" font-size="10.00">interface/driver_qmc5883l</text>
<text xml:space="preserve" text-anchor="middle" x="208.5" y="-74.5" font-family="Helvetica,sans-Serif" font-size="10.00">_interface_template.c</text>
</a>
</g>
</g>
<!-- Node1&#45;&gt;Node4 -->
<g id="edge3_Node000001_Node000004" class="edge">
<title>Node1&#45;&gt;Node4</title>
<g id="a_edge3_Node000001_Node000004"><a xlink:title=" ">
<path fill="none" stroke="#63b8ff" d="M251.86,-127.71C242.59,-118.59 232.23,-108.37 223.96,-100.22"/>
<polygon fill="#63b8ff" stroke="#63b8ff" points="249.3,-130.11 258.88,-134.63 254.21,-125.12 249.3,-130.11"/>
</a>
</g>
</g>
<!-- Node5 -->
<g id="Node000005" class="node">
<title>Node5</title>
<g id="a_Node000005"><a xlink:href="driver__qmc5883l__read__test_8h.html" target="_top" xlink:title="driver qmc5883l read test header file">
<polygon fill="white" stroke="#666666" points="396.88,-100 290.12,-100 290.12,-68 396.88,-68 396.88,-100"/>
<text xml:space="preserve" text-anchor="start" x="298.12" y="-86.5" font-family="Helvetica,sans-Serif" font-size="10.00">test/driver_qmc5883l</text>
<text xml:space="preserve" text-anchor="middle" x="343.5" y="-74.5" font-family="Helvetica,sans-Serif" font-size="10.00">_read_test.h</text>
</a>
</g>
</g>
<!-- Node1&#45;&gt;Node5 -->
<g id="edge4_Node000001_Node000005" class="edge">
<title>Node1&#45;&gt;Node5</title>
<g id="a_edge4_Node000001_Node000005"><a xlink:title=" ">
<path fill="none" stroke="#63b8ff" d="M299.5,-127.71C308.9,-118.59 319.42,-108.37 327.81,-100.22"/>
<polygon fill="#63b8ff" stroke="#63b8ff" points="297.1,-125.16 292.36,-134.64 301.97,-130.18 297.1,-125.16"/>
</a>
</g>
</g>
<!-- Node7 -->
<g id="Node000007" class="node">
<title>Node7</title>
<g id="a_Node000007"><a xlink:href="driver__qmc5883l__register__test_8h.html" target="_top" xlink:title="driver qmc5883l register test header file">
<polygon fill="white" stroke="#666666" points="521.88,-100 415.12,-100 415.12,-68 521.88,-68 521.88,-100"/>
<text xml:space="preserve" text-anchor="start" x="423.12" y="-86.5" font-family="Helvetica,sans-Serif" font-size="10.00">test/driver_qmc5883l</text>
<text xml:space="preserve" text-anchor="middle" x="468.5" y="-74.5" font-family="Helvetica,sans-Serif" font-size="10.00">_register_test.h</text>
</a>
</g>
</g>
<!-- Node1&#45;&gt;Node7 -->
<g id="edge6_Node000001_Node000007" class="edge">
<title>Node1&#45;&gt;Node7</title>
<g id="a_edge6_Node000001_Node000007"><a xlink:title=" ">
<path fill="none" stroke="#63b8ff" d="M331.59,-131.82C360.71,-121.86 395.82,-109.85 423.2,-100.49"/>
<polygon fill="#63b8ff" stroke="#63b8ff" points="330.51,-128.49 322.18,-135.04 332.78,-135.11 330.51,-128.49"/>
</a>
</g>
</g>
<!-- Node3 -->
<g id="Node000003" class="node">
<title>Node3</title>
<g id="a_Node000003"><a xlink:href="driver__qmc5883l__basic_8c.html" target="_top" xlink:title="driver qmc5883l basic source file">
<polygon fill="white" stroke="#666666" points="127,-32 0,-32 0,0 127,0 127,-32"/>
<text xml:space="preserve" text-anchor="start" x="8" y="-18.5" font-family="Helvetica,sans-Serif" font-size="10.00">example/driver_qmc5883l</text>
<text xml:space="preserve" text-anchor="middle" x="63.5" y="-6.5" font-family="Helvetica,sans-Serif" font-size="10.00">_basic.c</text>
</a>
</g>
</g>
<!-- Node2&#45;&gt;Node3 -->
<g id="edge2_Node000002_Node000003" class="edge">
<title>Node2&#45;&gt;Node3</title>
<g id="a_edge2_Node000002_Node000003"><a xlink:title=" ">
<path fill="none" stroke="#63b8ff" d="M63.5,-56.31C63.5,-48.12 63.5,-39.38 63.5,-32.22"/>
<polygon fill="#63b8ff" stroke="#63b8ff" points="60,-56.18 63.5,-66.18 67,-56.18 60,-56.18"/>
</a>
</g>
</g>
<!-- Node6 -->
<g id="Node000006" class="node">
<title>Node6</title>
<g id="a_Node000006"><a xlink:href="driver__qmc5883l__read__test_8c.html" target="_top" xlink:title="driver qmc5883l read test source file">
<polygon fill="white" stroke="#666666" points="396.88,-32 290.12,-32 290.12,0 396.88,0 396.88,-32"/>
<text xml:space="preserve" text-anchor="start" x="298.12" y="-18.5" font-family="Helvetica,sans-Serif" font-size="10.00">test/driver_qmc5883l</text>
<text xml:space="preserve" text-anchor="middle" x="343.5" y="-6.5" font-family="Helvetica,sans-Serif" font-size="10.00">_read_test.c</text>
</a>
</g>
</g>
<!-- Node5&#45;&gt;Node6 -->
<g id="edge5_Node000005_Node000006" class="edge">
<title>Node5&#45;&gt;Node6</title>
<g id="a_edge5_Node000005_Node000006"><a xlink:title=" ">
<path fill="none" stroke="#63b8ff" d="M343.5,-56.31C343.5,-48.12 343.5,-39.38 343.5,-32.22"/>
<polygon fill="#63b8ff" stroke="#63b8ff" points="340,-56.18 343.5,-66.18 347,-56.18 340,-56.18"/>
</a>
</g>
</g>
<!-- Node8 -->
<g id="Node000008" class="node">
<title>Node8</title>
<g id="a_Node000008"><a xlink:href="driver__qmc5883l__register__test_8c.html" target="_top" xlink:title="driver qmc5883l register test source file">
<polygon fill="white" stroke="#666666" points="521.88,-32 415.12,-32 415.12,0 521.88,0 521.88,-32"/>
<text xml:space="preserve" text-anchor="start" x="423.12" y="-18.5" font-family="Helvetica,sans-Serif" font-size="10.00">test/driver_qmc5883l</text>
<text xml:space="preserve" text-anchor="middle" x="468.5" y="-6.5" font-family="Helvetica,sans-Serif" font-size="10.00">_register_test.c</text>
</a>
</g>
</g>
<!-- Node7&#45;&gt;Node8 -->
<g id="edge7_Node000007_Node000008" class="edge">
<title>Node7&#45;&gt;Node8</title>
<g id="a_edge7_Node000007_Node000008"><a xlink:title=" ">
<path fill="none" stroke="#63b8ff" d="M468.5,-56.31C468.5,-48.12 468.5,-39.38 468.5,-32.22"/>
<polygon fill="#63b8ff" stroke="#63b8ff" points="465,-56.18 468.5,-66.18 472,-56.18 465,-56.18"/>
</a>
</g>
</g>
</g>
</svg>
